<?xml version="1.0" encoding="UTF-8"?>
<svg id="Camada_1" data-name="Camada 1" xmlns="http://www.w3.org/2000/svg" viewBox="0 0 1080 1080">
    <defs>
        <style>
            .cls-1 {
                fill: #003c81;
                stroke-width: 0px;
            }
        </style>
    </defs>
    <path class="cls-1" d="m920.91,285.57H340.08v.07c-1.44-.02-2.89-.07-4.34-.07-141.32,0-255.88,113.91-255.88,254.43s114.56,254.43,255.88,254.43c.23,0,.46,0,.69,0,.23,0,.46,0,.69,0,59.45,0,115.6-20.39,160.34-54.41,23.45-17.83,43.76-39.41,59.77-63.76,1.13-1.72,83.23-136.26,83.23-136.26h-131.16s-49.86,86.45-62.37,99.89c-27.36,29.42-66.26,48.14-109.73,48.16v-.03c-.25,0-.51.01-.76.02-.25,0-.5-.02-.76-.02v.03c-82.2-.04-148.83-66.31-148.83-148.06s66.52-147.91,148.64-148.05h0s4.97,0,4.97,0l516.7.6-239.74,401.89h130.56l252.16-421.04v-87.82h-79.22Z"/>
</svg>