<svg width="194" height="52" viewBox="0 0 194 52" fill="none" xmlns="http://www.w3.org/2000/svg">
<path fill-rule="evenodd" clip-rule="evenodd" d="M6.42915 0.282471H45.2253C48.7561 0.282471 51.6195 3.13804 51.6195 6.65913V45.3486C51.6195 48.8697 48.76 51.7253 45.2253 51.7253H6.42915C2.89835 51.7253 0.0349121 48.8736 0.0349121 45.3486V6.65527C0.0387921 3.13417 2.89835 0.282471 6.42915 0.282471Z" fill="url(#paint0_linear_194_7230)"/>
<path d="M37.3528 52V40.8563H0V33.2066L33.9112 0H43.9061V35.5089H51.6894V40.8563H43.9061V52H37.3528ZM6.96072 35.5089H37.3489V5.71888H35.956L6.96072 34.2475V35.5089Z" fill="white"/>
<path d="M71.1059 17.0218C70.6872 16.6942 70.2279 16.4188 69.725 16.1956C69.2192 15.9724 68.6872 15.8042 68.1261 15.6883C67.5622 15.5723 66.9924 15.5143 66.411 15.5143C65.7714 15.5143 65.1319 15.581 64.4894 15.7173C63.8499 15.8535 63.2714 16.0594 62.7598 16.3406C62.2452 16.6218 61.8324 16.9755 61.5243 17.3987C61.2132 17.8249 61.0591 18.3264 61.0591 18.9062C61.0591 19.4686 61.2045 19.9354 61.4952 20.3123C61.7859 20.6891 62.1842 21.008 62.6871 21.2689C63.19 21.5299 63.7772 21.7386 64.4458 21.8922C65.1145 22.0488 65.8267 22.1821 66.5854 22.2981C67.5942 22.4546 68.5825 22.6431 69.5535 22.8634C70.5215 23.0866 71.3849 23.4142 72.1437 23.8491C72.8995 24.2839 73.51 24.8493 73.9751 25.545C74.4402 26.2408 74.6728 27.1395 74.6728 28.244C74.6728 29.3863 74.4199 30.3487 73.917 31.1315C73.4111 31.9142 72.7629 32.5491 71.9663 33.0333C71.1698 33.5174 70.2832 33.8595 69.3035 34.0624C68.3238 34.2654 67.35 34.3668 66.379 34.3668C65.5243 34.3668 64.6726 34.2827 63.8179 34.1204C62.9632 33.9552 62.1609 33.6913 61.4022 33.3232C60.6463 32.955 59.9574 32.4766 59.3353 31.8881C58.7132 31.2996 58.2102 30.5691 57.8236 29.6965L59.8324 28.4499C60.5097 29.7081 61.4283 30.6213 62.5824 31.1924C63.7365 31.7635 65.0127 32.0476 66.4081 32.0476C67.0273 32.0476 67.6785 31.9896 68.3587 31.8736C69.036 31.7577 69.664 31.5547 70.2366 31.2648C70.8093 30.9749 71.2774 30.5836 71.6466 30.0907C72.0158 29.5979 72.1989 28.9746 72.1989 28.2179C72.1989 27.6005 72.0332 27.0815 71.7047 26.667C71.3733 26.2524 70.9372 25.9045 70.3965 25.6233C69.8529 25.3421 69.2279 25.1218 68.5215 24.9565C67.8122 24.7913 67.0825 24.6521 66.3238 24.5362C65.3354 24.3825 64.3732 24.197 63.4429 23.9853C62.5127 23.7737 61.6842 23.4635 60.9545 23.0577C60.2277 22.6518 59.6463 22.1213 59.2103 21.4632C58.7742 20.8051 58.5562 19.9644 58.5562 18.9381C58.5358 17.9118 58.7684 17.0421 59.2539 16.3261C59.7393 15.61 60.3644 15.0244 61.1289 14.5721C61.8935 14.117 62.7394 13.7836 63.6609 13.572C64.5825 13.3603 65.4778 13.2531 66.3528 13.2531C67.0912 13.2531 67.8209 13.3053 68.5506 13.4125C69.2773 13.5198 69.975 13.714 70.6465 13.9923C71.3152 14.2735 71.9402 14.6562 72.5245 15.1375C73.1059 15.6216 73.6292 16.2391 74.0943 16.9957L72.1756 18.1844C71.8791 17.7379 71.5245 17.3523 71.1059 17.0218Z" fill="white"/>
<path d="M81.013 13.6561H95.3272V15.9782H83.5421V22.3329H94.8301V24.684H83.5421V31.5606H95.7895V33.9697H81.013V13.6561Z" fill="white"/>
<path d="M104.868 31.6156H115.953V33.9668H102.307V13.6561H104.868V31.6156Z" fill="white"/>
<path d="M121.508 13.6561H135.822V15.9782H124.04V22.3329H135.328V24.684H124.04V31.5606H136.287V33.9697H121.508V13.6561Z" fill="white"/>
<path d="M140.593 15.9202V13.6561H157V15.9202H150.046V33.9668H147.573V15.9202H140.593Z" fill="white"/>
<defs>
<linearGradient id="paint0_linear_194_7230" x1="45.5326" y1="43.1942" x2="1.96335" y2="4.96607" gradientUnits="userSpaceOnUse">
<stop offset="0.0184" stop-color="#1B264D"/>
<stop offset="0.672" stop-color="#2464AE"/>
</linearGradient>
</defs>
</svg>
